<svg id="Capa_1" enable-background="new 0 0 513.598 513.598" height="512" viewBox="0 0 513.598 513.598" width="512" xmlns="http://www.w3.org/2000/svg"><g><path d="m428.169 282.005h-343.169c-8.284 0-15-6.716-15-15v-60.003c0-8.284 6.716-15 15-15s15 6.716 15 15v45.003h313.168v-45.003c0-8.284 6.716-15 15-15s15 6.716 15 15v60.003c.001 8.284-6.715 15-14.999 15z" fill="#4d6780"/><path d="m428.169 282.005h-343.169c-8.284 0-15-6.716-15-15v-60.003c0-8.284 6.716-15 15-15s15 6.716 15 15v45.003h313.168v-45.003c0-8.284 6.716-15 15-15s15 6.716 15 15v60.003c.001 8.284-6.715 15-14.999 15z" fill="#4d6780"/><path d="m428.169 192.002c-8.284 0-15 6.716-15 15v45.003h-156.584v30h171.584c8.284 0 15-6.716 15-15v-60.003c0-8.284-6.716-15-15-15z" fill="#37445e"/><path d="m170.688 131.16c0-8.284-6.716-15-15-15h-140.688c-8.284 0-15 6.716-15 15 0 7.751 5.88 14.126 13.421 14.916l17.077 64.751c1.737 6.586 7.693 11.175 14.504 11.175h80.684c6.811 0 12.767-4.589 14.504-11.175l17.077-64.751c7.541-.79 13.421-7.165 13.421-14.916z" fill="#ff8a50"/><path d="m513.598 131.16c0-8.284-6.716-15-15-15h-140.687c-8.284 0-15 6.716-15 15 0 7.751 5.88 14.126 13.421 14.916l17.077 64.751c1.737 6.586 7.693 11.175 14.504 11.175h80.684c6.811 0 12.767-4.589 14.504-11.175l17.076-64.751c7.542-.79 13.421-7.165 13.421-14.916z" fill="#f43"/><path d="m256.692.404c-27.681 0-50.2 22.52-50.2 50.2v350.693c0 8.284 6.716 15 15 15h70.4c8.284 0 15-6.716 15-15v-350.693c0-27.68-22.519-50.2-50.2-50.2z" fill="#ffbe40"/><path d="m291.892 416.298c8.284 0 15-6.716 15-15v-350.694c0-27.681-22.52-50.2-50.2-50.2v415.894z" fill="#ff8a50"/><path d="m389.962 447.161-38.743-77.097c-2.541-5.082-7.735-8.292-13.417-8.292h-162.22c-5.682 0-10.875 3.21-13.417 8.292l-37.168 74.519z" fill="#ffe161"/><path d="m337.802 361.772h-81.11v84.093l133.27 1.297-38.743-77.097c-2.541-5.083-7.735-8.293-13.417-8.293z" fill="#ffbe40"/><path d="m397.806 436.777h-282.228c-8.284 0-15 6.716-15 15v46.417c0 8.284 6.716 15 15 15h282.229c8.284 0 15-6.716 15-15v-46.417c-.001-8.284-6.717-15-15.001-15z" fill="#ffbe40"/><path d="m397.806 436.777h-141.114v76.417h141.114c8.284 0 15-6.716 15-15v-46.417c0-8.284-6.716-15-15-15z" fill="#ff8a50"/></g></svg>