<svg height="512pt" viewBox="0 0 512 512" width="512pt" xmlns="http://www.w3.org/2000/svg"><path d="m512 256c0 43.894531-11.042969 85.222656-30.519531 121.324219-43.238281 80.183593-127.992188 134.675781-225.480469 134.675781-82.691406 0-156.222656-39.203125-203.023438-100.039062-33.226562-43.183594-52.976562-97.269532-52.976562-155.960938 0-131.15625 98.628906-239.28125 225.769531-254.222656.984375-.125 1.964844-.242188 2.957031-.335938 8.957032-.949218 18.058594-1.441406 27.273438-1.441406 141.386719 0 256 114.613281 256 256zm0 0" fill="#dd3d88"/><path d="m451.125 277.179688c12.683594 24.128906 27.804688 61.148437 30.355469 100.144531-18.183594 33.726562-43.710938 62.902343-74.449219 85.386719-18.507812 13.554687-38.902344 24.671874-60.710938 32.894531-28.085937 10.59375-58.523437 16.394531-90.320312 16.394531-35.757812 0-69.800781-7.335938-100.707031-20.585938-9.8125-4.1875-19.308594-8.984374-28.441407-14.335937-28.652343-16.757813-53.730468-38.941406-73.875-65.117187-8.789062-36.613282-7.929687-77.332032 5.433594-105.984376 26.863282-57.59375-16.960937-124.238281-16.960937-124.238281s85.632812 14.453125 112.214843 87.324219c-.878906-3.210938-28.414062-105.429688 28.417969-166.757812 50.667969-54.65625 45.683594-92.160157 43.6875-100.527344-.25-1.078125-.449219-1.671875-.480469-1.7656252.085938.03125 1.308594.5000002 3.4375 1.4296872 22.550782 9.792969 146.945313 70.519532 110.625 204.445313.59375-1.660157 20.125-54.941407 80.238282-66.121094 61.074218-11.347656 78.535156 36.632813 78.535156 36.632813s-84.230469 29.988281-47 100.78125zm0 0" fill="#fbcd58"/><path d="m346.320312 495.605469c-28.085937 10.59375-58.523437 16.394531-90.320312 16.394531-35.757812 0-69.800781-7.335938-100.707031-20.585938-26.699219-56.964843-45.851563-108.804687-21.515625-146.515624 27.230468-42.210938 27.230468-58.554688 27.230468-58.554688s34.03125 43.550781 24.523438 92.558594c.585938-1.277344 19.5625-42.320313 51.734375-51.714844 32.664063-9.527344 46.976563-78.273438 27.238281-98.019531.984375.457031 63.992188 30.488281 63.992188 99.390625 0 0 32.683594-5.445313 42.210937-42.214844 0 0 27.011719 129.472656-24.386719 209.261719zm0 0" fill="#f98c3c"/><g fill="#3d3d3d"><path d="m125.019531 310.164062c0-5.386718 6.367188-7.671874 12.730469-7.671874 6.367188 0 12.730469 2.285156 12.730469 7.671874v39.167969l30.519531-43.25c1.792969-2.609375 4.078125-3.589843 6.691406-3.589843 6.527344 0 15.011719 6.691406 15.011719 13.054687 0 1.308594-.324219 3.101563-1.628906 4.898437l-26.765625 33.621094 33.78125 51.734375c.816406 1.304688 1.304687 2.773438 1.304687 4.242188 0 6.363281-7.996093 12.730469-15.339843 12.730469-3.425782 0-6.691407-1.304688-8.8125-4.734376l-27.910157-42.429687-6.851562 8.8125v29.539063c0 5.222656-6.367188 7.835937-12.730469 7.835937-6.367188 0-12.730469-2.613281-12.730469-7.835937zm0 0"/><path d="m218.039062 388.828125v-11.097656c0-19.421875 11.097657-34.601563 36.722657-34.601563 15.992187 0 27.582031 6.367188 27.582031 13.546875 0 4.734375-3.917969 12.402344-9.792969 12.402344-3.917969 0-6.855469-3.917969-15.667969-3.917969-9.792968 0-13.546874 4.570313-13.546874 12.570313v11.097656c0 7.996094 3.753906 12.5625 13.707031 12.5625 8.816406 0 11.101562-4.40625 15.507812-4.40625 6.855469 0 10.769531 7.183594 10.769531 12.078125 0 7.34375-12.402343 14.363281-28.234374 14.363281-25.949219 0-37.046876-14.851562-37.046876-34.597656zm0 0"/><path d="m362.792969 375.117188v38.84375c0 4.40625-5.21875 7.832031-12.402344 7.832031-6.363281 0-11.257813-3.425781-11.257813-7.832031v-3.589844c-5.875 6.855468-13.382812 13.054687-24.808593 13.054687-11.261719 0-20.886719-6.855469-20.886719-21.707031 0-19.253906 15.664062-24.640625 38.1875-24.640625h5.875v-1.632813c0-5.546874-2.9375-12.078124-12.238281-12.078124-13.382813 0-14.691407 5.386718-19.097657 5.386718-5.546874 0-8.484374-6.691406-8.484374-12.566406 0-7.671875 15.828124-13.054688 27.90625-13.054688 26.761718-.003906 37.207031 15.5 37.207031 31.984376zm-25.292969 14.199218h-.652344c-9.304687 0-17.953125.980469-17.953125 8.8125 0 4.734375 2.609375 6.855469 6.363281 6.855469 5.0625 0 12.242188-6.691406 12.242188-15.015625zm0 0"/><path d="m408.484375 307.390625v106.570313c0 3.917968-5.710937 7.832031-12.726563 7.832031-7.34375 0-12.566406-3.917969-12.566406-7.832031v-106.570313c0-4.570313 5.222656-7.671875 12.566406-7.671875 7.015626 0 12.726563 3.101562 12.726563 7.671875zm0 0"/></g><path d="m79.628906 11.285156c-31.414062 83.390625 43.980469 88.246094 31.128906 144.792969 0 0 60.042969-33.773437 12.851563-80.964844-28.449219-28.445312-43.980469-63.828125-43.980469-63.828125zm0 0" fill="#fbcd58"/><path d="m419.929688 35.496094c31.414062 56.898437-43.980469 60.210937-31.128907 98.792968 0 0-60.042969-23.039062-12.851562-55.242187 28.445312-19.410156 43.980469-43.550781 43.980469-43.550781zm0 0" fill="#fbcd58"/></svg>